{
    "asset" : {
        "generator" : "Khronos glTF Blender I/O v3.4.50",
        "version" : "2.0"
    },
    "scene" : 0,
    "scenes" : [
        {
            "name" : "Scene",
            "nodes" : [
                0,
                1,
                2
            ]
        }
    ],
    "nodes" : [
        {
            "mesh" : 0,
            "name" : "F_15_C.002",
            "rotation" : [
                0.001829792046919465,
                -0.7071043252944946,
                0.707104504108429,
                0.001829792046919465
            ],
            "scale" : [
                0.28477340936660767,
                0.2847733795642853,
                0.2847733795642853
            ]
        },
        {
            "mesh" : 1,
            "name" : "GLass.002",
            "rotation" : [
                0.001829792046919465,
                -0.7071043252944946,
                0.707104504108429,
                0.001829792046919465
            ],
            "scale" : [
                0.28477340936660767,
                0.2847733795642853,
                0.2847733795642853
            ]
        },
        {
            "mesh" : 2,
            "name" : "TAnks.002",
            "rotation" : [
                0.001829792046919465,
                -0.7071043252944946,
                0.707104504108429,
                0.001829792046919465
            ],
            "scale" : [
                0.28477340936660767,
                0.2847733795642853,
                0.2847733795642853
            ]
        }
    ],
    "materials" : [
        {
            "doubleSided" : true,
            "name" : "F_15C.001",
            "pbrMetallicRoughness" : {
                "baseColorTexture" : {
                    "index" : 0
                },
                "metallicFactor" : 0,
                "roughnessFactor" : 0.6766191720962524
            }
        },
        {
            "alphaMode" : "BLEND",
            "doubleSided" : true,
            "name" : "Glass.001",
            "pbrMetallicRoughness" : {
                "baseColorFactor" : [
                    0.800000011920929,
                    0.800000011920929,
                    0.800000011920929,
                    0.26404500007629395
                ],
                "metallicFactor" : 0,
                "roughnessFactor" : 0.6766191720962524
            }
        }
    ],
    "meshes" : [
        {
            "name" : "F_15_C.001",
            "primitives" : [
                {
                    "attributes" : {
                        "POSITION" : 0,
                        "TEXCOORD_0" : 1,
                        "NORMAL" : 2
                    },
                    "indices" : 3,
                    "material" : 0
                }
            ]
        },
        {
            "name" : "GLass.001",
            "primitives" : [
                {
                    "attributes" : {
                        "POSITION" : 4,
                        "TEXCOORD_0" : 5,
                        "NORMAL" : 6
                    },
                    "indices" : 7,
                    "material" : 1
                }
            ]
        },
        {
            "name" : "TAnks.001",
            "primitives" : [
                {
                    "attributes" : {
                        "POSITION" : 8,
                        "TEXCOORD_0" : 9,
                        "NORMAL" : 10
                    },
                    "indices" : 11,
                    "material" : 0
                }
            ]
        }
    ],
    "textures" : [
        {
            "sampler" : 0,
            "source" : 0
        }
    ],
    "images" : [
        {
            "bufferView" : 4,
            "mimeType" : "image/jpeg",
            "name" : "F 15A"
        }
    ],
    "accessors" : [
        {
            "bufferView" : 0,
            "componentType" : 5126,
            "count" : 3534,
            "max" : [
                3.5059430599212646,
                6.743843078613281,
                0.2635680139064789
            ],
            "min" : [
                -3.5059430599212646,
                -3.998171091079712,
                -2.0985360145568848
            ],
            "type" : "VEC3"
        },
        {
            "bufferView" : 1,
            "componentType" : 5126,
            "count" : 3534,
            "type" : "VEC2"
        },
        {
            "bufferView" : 2,
            "componentType" : 5126,
            "count" : 3534,
            "type" : "VEC3"
        },
        {
            "bufferView" : 3,
            "componentType" : 5123,
            "count" : 7176,
            "type" : "SCALAR"
        },
        {
            "bufferView" : 5,
            "componentType" : 5126,
            "count" : 95,
            "max" : [
                0.2644740045070648,
                4.8905768394470215,
                -0.5547029972076416
            ],
            "min" : [
                -0.2644740045070648,
                2.7229440212249756,
                -1.0410219430923462
            ],
            "type" : "VEC3"
        },
        {
            "bufferView" : 6,
            "componentType" : 5126,
            "count" : 95,
            "type" : "VEC2"
        },
        {
            "bufferView" : 7,
            "componentType" : 5126,
            "count" : 95,
            "type" : "VEC3"
        },
        {
            "bufferView" : 8,
            "componentType" : 5123,
            "count" : 252,
            "type" : "SCALAR"
        },
        {
            "bufferView" : 9,
            "componentType" : 5126,
            "count" : 264,
            "max" : [
                1.7147819995880127,
                2.072261095046997,
                0.5111439824104309
            ],
            "min" : [
                -1.7147819995880127,
                -1.2007980346679688,
                -0.16569800674915314
            ],
            "type" : "VEC3"
        },
        {
            "bufferView" : 10,
            "componentType" : 5126,
            "count" : 264,
            "type" : "VEC2"
        },
        {
            "bufferView" : 11,
            "componentType" : 5126,
            "count" : 264,
            "type" : "VEC3"
        },
        {
            "bufferView" : 12,
            "componentType" : 5123,
            "count" : 1152,
            "type" : "SCALAR"
        }
    ],
    "bufferViews" : [
        {
            "buffer" : 0,
            "byteLength" : 42408,
            "byteOffset" : 0,
            "target" : 34962
        },
        {
            "buffer" : 0,
            "byteLength" : 28272,
            "byteOffset" : 42408,
            "target" : 34962
        },
        {
            "buffer" : 0,
            "byteLength" : 42408,
            "byteOffset" : 70680,
            "target" : 34962
        },
        {
            "buffer" : 0,
            "byteLength" : 14352,
            "byteOffset" : 113088,
            "target" : 34963
        },
        {
            "buffer" : 0,
            "byteLength" : 1195634,
            "byteOffset" : 127440
        },
        {
            "buffer" : 0,
            "byteLength" : 1140,
            "byteOffset" : 1323076,
            "target" : 34962
        },
        {
            "buffer" : 0,
            "byteLength" : 760,
            "byteOffset" : 1324216,
            "target" : 34962
        },
        {
            "buffer" : 0,
            "byteLength" : 1140,
            "byteOffset" : 1324976,
            "target" : 34962
        },
        {
            "buffer" : 0,
            "byteLength" : 504,
            "byteOffset" : 1326116,
            "target" : 34963
        },
        {
            "buffer" : 0,
            "byteLength" : 3168,
            "byteOffset" : 1326620,
            "target" : 34962
        },
        {
            "buffer" : 0,
            "byteLength" : 2112,
            "byteOffset" : 1329788,
            "target" : 34962
        },
        {
            "buffer" : 0,
            "byteLength" : 3168,
            "byteOffset" : 1331900,
            "target" : 34962
        },
        {
            "buffer" : 0,
            "byteLength" : 2304,
            "byteOffset" : 1335068,
            "target" : 34963
        }
    ],
    "samplers" : [
        {
            "magFilter" : 9729,
            "minFilter" : 9987
        }
    ],
    "buffers" : [
        {
            "byteLength" : 1337372,
            "uri" : "data:application/octet-stream;base64,"
        }
    ]
}
