{
    "asset" : {
        "generator" : "Khronos glTF Blender I/O v3.4.50",
        "version" : "2.0"
    },
    "scene" : 0,
    "scenes" : [
        {
            "name" : "Scene",
            "nodes" : [
                0,
                1,
                5,
                6,
                7
            ]
        }
    ],
    "nodes" : [
        {
            "name" : "active",
            "rotation" : [
                0.1454485058784485,
                0.7948896288871765,
                -0.5503266453742981,
                0.21008525788784027
            ],
            "translation" : [
                1288.3917236328125,
                1292.2493896484375,
                -3293.880859375
            ]
        },
        {
            "name" : "Camera 1",
            "rotation" : [
                0.24486812949180603,
                0.7047656774520874,
                -0.6006669998168945,
                0.28730499744415283
            ],
            "translation" : [
                1392.108642578125,
                708.0247192382812,
                -2520.764404296875
            ]
        },
        {
            "mesh" : 0,
            "name" : "MeshBody1",
            "rotation" : [
                0,
                0,
                -0.7070872187614441,
                0.7071263194084167
            ],
            "scale" : [
                2.121187925338745,
                2.121188163757324,
                2.121188163757324
            ],
            "translation" : [
                -722.52294921875,
                357.5509338378906,
                -720.8626098632812
            ]
        },
        {
            "children" : [
                2
            ],
            "name" : "Leonardo_M346 v0",
            "rotation" : [
                -0.70710688829422,
                0,
                0,
                0.7071066498756409
            ],
            "translation" : [
                -634.8599243164062,
                -174.52001953125,
                -602.2899780273438
            ]
        },
        {
            "children" : [
                3
            ],
            "name" : "Default",
            "rotation" : [
                0,
                0.9999845623970032,
                0,
                0.0055554695427417755
            ]
        },
        {
            "children" : [
                4
            ],
            "name" : "lux_root",
            "scale" : [
                0.0010000000474974513,
                0.0010000000474974513,
                0.0010000000474974513
            ]
        },
        {
            "name" : "Light.001",
            "rotation" : [
                0.16907577216625214,
                0.7558803558349609,
                -0.27217137813568115,
                0.5709474682807922
            ],
            "translation" : [
                4.076245307922363,
                5.903861999511719,
                -1.0054539442062378
            ]
        },
        {
            "name" : "Camera.001",
            "rotation" : [
                0.483536034822464,
                0.33687159419059753,
                -0.20870360732078552,
                0.7804827094078064
            ],
            "translation" : [
                7.358891487121582,
                4.958309173583984,
                6.925790786743164
            ]
        }
    ],
    "materials" : [
        {
            "doubleSided" : true,
            "name" : "Material_0",
            "pbrMetallicRoughness" : {
                "baseColorTexture" : {
                    "index" : 0
                },
                "metallicRoughnessTexture" : {
                    "index" : 1
                }
            }
        }
    ],
    "meshes" : [
        {
            "name" : "MeshBody1-mesh",
            "primitives" : [
                {
                    "attributes" : {
                        "POSITION" : 0,
                        "TEXCOORD_0" : 1,
                        "NORMAL" : 2
                    },
                    "indices" : 3,
                    "material" : 0
                }
            ]
        }
    ],
    "textures" : [
        {
            "sampler" : 0,
            "source" : 0
        },
        {
            "sampler" : 0,
            "source" : 1
        }
    ],
    "images" : [
        {
            "bufferView" : 4,
            "mimeType" : "image/png",
            "name" : "Image_0"
        },
        {
            "bufferView" : 5,
            "mimeType" : "image/png",
            "name" : "Image_1"
        }
    ],
    "accessors" : [
        {
            "bufferView" : 0,
            "componentType" : 5126,
            "count" : 35712,
            "max" : [
                1209.280029296875,
                1123.340087890625,
                800.7999877929688
            ],
            "min" : [
                60.44000244140625,
                174.52001953125,
                403.780029296875
            ],
            "type" : "VEC3"
        },
        {
            "bufferView" : 1,
            "componentType" : 5126,
            "count" : 35712,
            "type" : "VEC2"
        },
        {
            "bufferView" : 2,
            "componentType" : 5126,
            "count" : 35712,
            "type" : "VEC3"
        },
        {
            "bufferView" : 3,
            "componentType" : 5123,
            "count" : 35712,
            "type" : "SCALAR"
        }
    ],
    "bufferViews" : [
        {
            "buffer" : 0,
            "byteLength" : 428544,
            "byteOffset" : 0,
            "target" : 34962
        },
        {
            "buffer" : 0,
            "byteLength" : 285696,
            "byteOffset" : 428544,
            "target" : 34962
        },
        {
            "buffer" : 0,
            "byteLength" : 428544,
            "byteOffset" : 714240,
            "target" : 34962
        },
        {
            "buffer" : 0,
            "byteLength" : 71424,
            "byteOffset" : 1142784,
            "target" : 34963
        },
        {
            "buffer" : 0,
            "byteLength" : 243042,
            "byteOffset" : 1214208
        },
        {
            "buffer" : 0,
            "byteLength" : 243042,
            "byteOffset" : 1457252
        }
    ],
    "samplers" : [
        {
            "magFilter" : 9729,
            "minFilter" : 9987
        }
    ],
    "buffers" : [
        {
            "byteLength" : 1700296,
            "uri" : "data:application/octet-stream;base64,"
        }
    ]
}
